<?xml version="1.0" standalone="no"?>
<!DOCTYPE svg PUBLIC "-//W3C//DTD SVG 20010904//EN"
 "http://www.w3.org/TR/2001/REC-SVG-20010904/DTD/svg10.dtd">
<svg version="1.0" xmlns="http://www.w3.org/2000/svg"
 width="700.000000pt" height="700.000000pt" viewBox="0 0 700.000000 700.000000"
 preserveAspectRatio="xMidYMid meet">
<metadata>
Created by potrace 1.14, written by Peter Selinger 2001-2017
</metadata>
<g transform="translate(0.000000,700.000000) scale(0.100000,-0.100000)"
fill="#000000" stroke="none">
<path d="M1955 6986 c-111 -35 -179 -93 -228 -196 -28 -57 -32 -78 -35 -167
-3 -57 -7 -103 -11 -104 -3 0 -46 -2 -96 -4 -102 -4 -138 -13 -202 -51 -115
-67 -172 -178 -175 -338 l-2 -91 -93 -1 c-130 -2 -198 -28 -279 -108 -44 -44
-67 -78 -84 -121 l-24 -60 0 -2725 c-1 -2645 0 -2726 18 -2775 44 -117 149
-210 266 -235 41 -8 558 -10 2040 -8 l1985 3 67 33 c86 42 153 114 184 197 14
39 16 51 21 148 3 62 9 97 17 98 6 0 52 2 101 4 110 4 181 32 253 99 49 46 97
128 106 182 3 16 6 63 7 104 2 41 4 80 7 87 2 7 25 10 65 9 81 -4 178 17 232
48 61 36 130 118 156 184 l23 57 1 2710 c1 2014 -2 2722 -10 2755 -28 109 -94
192 -192 241 l-68 34 -2005 2 c-1602 1 -2013 -1 -2045 -11z"/>
</g>
</svg>
